<?xml version="1.0" encoding="UTF-8"?>
<!DOCTYPE svg PUBLIC "-//W3C//DTD SVG 1.1//EN" "http://www.w3.org/Graphics/SVG/1.1/DTD/svg11.dtd">
<!-- Creator: CorelDRAW 2020 (64-Bit) -->
<svg xmlns="http://www.w3.org/2000/svg" xml:space="preserve" width="420mm" height="594mm" version="1.1" style="shape-rendering:geometricPrecision; text-rendering:geometricPrecision; image-rendering:optimizeQuality; fill-rule:evenodd; clip-rule:evenodd"
viewBox="0 0 21000 29700"
 xmlns:xlink="http://www.w3.org/1999/xlink"
 xmlns:xodm="http://www.corel.com/coreldraw/odm/2003">
 <defs>
  <style type="text/css">
   <![CDATA[
    .fil0 {fill:none}
    .fil3 {fill:#FB263F}
    .fil2 {fill:#FB263F;fill-rule:nonzero}
    .fil1 {fill:#FB263F;fill-opacity:0.149020}
   ]]>
  </style>
 </defs>
 <g id="Layer_x0020_1">
  <metadata id="CorelCorpID_0Corel-Layer"/>
  <rect class="fil0" x="1397.28" y="3604.96" width="19294.71" height="19294.71"/>
  <g id="_1800289442688">
   <path class="fil1" d="M11581.31 9282.93c1616.17,386.05 2817.87,1839.6 2817.87,3574.03 0,741.12 -219.58,1430.86 -596.99,2008.09l-263.93 -348.77 -663.7 -840.31 -362.85 -562.41 -279.09 -308.55 -651.31 -751.27 0 -2770.81zm771.14 6869.05c-490.67,242.94 -1043.33,379.67 -1627.96,379.67 -2029.48,0 -3674.7,-1645.21 -3674.7,-3674.69 0,-1199.11 574.44,-2263.94 1463.04,-2934.68l0 3088.03 -45.25 262.78 28.86 258.82 50.01 224.89 -95.29 547.93 159.33 447.63 250.97 153.27 -78.76 -9.35 158.65 134.86 58.28 167.52 301.56 125.67 1709.67 39.24 507.75 313.12 833.84 475.29z"/>
   <path class="fil2" d="M8437.03 13184.39l0 -4470.35c0,-154.87 63.32,-295.63 165.29,-397.58 101.95,-101.97 242.71,-165.28 397.56,-165.28l2094.39 0c154.85,0 295.61,63.31 397.56,165.28 101.97,101.95 165.28,242.71 165.28,397.58l0 3339.7 -151.58 0 0 -3339.7c0,-113.02 -46.3,-215.85 -120.88,-290.4 -74.55,-74.58 -177.38,-120.88 -290.38,-120.88l-2094.39 0c-113.01,0 -215.83,46.3 -290.39,120.88 -74.57,74.55 -120.87,177.38 -120.87,290.4l0 4470.35 -151.59 0zm562.85 1839.11c-154.84,0 -295.58,-63.3 -397.56,-165.29 -101.97,-101.95 -165.29,-242.71 -165.29,-397.56l0 -138.76 151.59 0 0 138.76c0,113.01 46.3,215.83 120.87,290.39 74.57,74.57 177.4,120.87 290.39,120.87l0 151.59z"/>
   <path class="fil2" d="M8556.05 8979.06c-750.26,440.9 -1355.97,1064.29 -1774.19,1795.17 -418.01,730.57 -648.47,1568.62 -648.47,2439.24 0,1356.2 549.72,2584.04 1438.47,3472.78 888.74,888.75 2116.56,1438.47 3472.78,1438.47 314.22,0 626.57,-30.03 932.73,-89.24 288.6,-55.8 572.11,-137.49 846.94,-244.32 -20.44,-251.29 -52.46,-501.42 -95.9,-749.75 -44.26,-252.9 -100.13,-502.79 -167.52,-748.96 -68.63,-21.84 -139.66,-52.73 -213.08,-92.67 -186.22,-66.41 -411.69,-167.36 -654.6,-307.04 -196.7,-113.1 -404.53,-251.5 -611.61,-417.27 -390.91,0.89 -726.03,-6.91 -1010.53,-19.04 -296.08,-12.65 -534.94,-29.56 -724.66,-46.3 -206.33,-18.19 -353.13,-92.67 -426.69,-182.42l-0.29 0c-35.82,-43.71 -55.77,-92.07 -58.83,-141.46 -3.15,-51.25 11.99,-101.35 46.52,-146.43 58.97,-77 178.38,-138.8 363.51,-158.65 255.12,-27.38 514.38,-52.75 777.61,-76l177.09 -15.3c-217.39,-30.78 -420.74,-59.76 -610.04,-86.93 -379.85,-54.53 -710.06,-102.76 -990.43,-144.59l-4.14 -0.89c-86.96,-17.86 -159.61,-67.77 -207.53,-135.12 -47.91,-67.39 -71.22,-152.31 -59.6,-240.14 11.67,-87.99 56.37,-163.97 120.26,-216.58 63.93,-52.61 146.94,-81.88 235.21,-76.46l1389.81 88.45 838.86 38.4 2.08 -0.09 -2.81 -0.99 -1156.54 -136.38c-315.48,-4.55 -567.59,-11.89 -756.25,-21.93 -194.89,-10.36 -327.57,-24.03 -397.92,-40.92l-3.85 -0.89c-78.68,-23.07 -143.99,-71.9 -188.16,-135.33 -44.15,-63.44 -67.27,-141.58 -61.59,-223.2 5.65,-81.57 39.49,-155.85 92.17,-212.74 52.74,-56.94 124.17,-96.4 204.96,-108.27l2.48 -0.37c443.53,-17.06 887.16,-34.71 1330.71,-50.76 309.63,35.81 842.24,132.92 1127.52,132.92 25.92,3.16 51.55,-0.78 74.32,-10.75 22.87,-10.02 43.14,-26.12 58.21,-47.12 14.85,-20.68 23.53,-45.01 25.71,-70.14 1.55,-17.67 -0.1,-35.51 -5.03,-52.52l-421.44 -588.94c-131.03,-15.89 -250.39,-32.32 -358.08,-49.29 -110.41,-17.37 -203.64,-34.7 -279.59,-51.92 -60.88,2.51 -173.84,6.57 -301.15,1.14 -137.75,-5.88 -292.24,-22.93 -417.89,-64.88 -127.18,-42.45 -215.45,-109.96 -258.85,-184.78 -28.39,-48.98 -38.67,-101.07 -29.69,-152.56 8.8,-50.49 35.62,-98.33 81.41,-139.62 78.75,-71.05 219.95,-124.93 428.87,-136.62l542.1 -30.35 5.76 0.69c59.59,7.21 138.13,12.94 226.3,19.33 336.34,24.4 805.86,58.5 952.56,229.08l0.88 0.88c214.35,258.72 391.99,469.78 532.84,633.01 141.63,164.17 250.41,285.28 326.22,363.29 64.67,55.76 122.3,117.34 172.76,184.62 50.2,66.91 92.92,138.89 128.14,215.81 179.84,261.48 364.51,514.59 553.91,759.24 188.21,243.12 379.89,476 574.94,698.6 265.39,202.39 538.56,868.08 819.39,1996.96 430.59,-442.09 770.08,-957.1 1006,-1515.67 252.74,-598.4 386.75,-1247.49 386.75,-1911.08 0,-1346.88 -542.2,-2567.93 -1420.94,-3455.48 -879.08,-887.9 -2094.74,-1442.44 -3441.2,-1455.85l1.17 -150.96c1388.23,13.83 2641.32,585.29 3547.21,1500.25 906.2,915.29 1465.34,2174.04 1465.34,3562.04 0,683.03 -138.31,1352.04 -399.19,1969.69 -260.77,617.41 -643.98,1183.01 -1133.85,1659.47l-94.97 92.4 -31.15 -128.82c-286.17,-1183.73 -553.22,-1866.03 -801.05,-2046.8l-7.11 -5.19 -5.31 -6.05c-198.99,-226.85 -394.23,-463.92 -585.62,-711.15 -190.13,-245.61 -377.93,-503.31 -563.25,-773.04l-4.65 -6.75 -2.16 -4.78c-31.42,-69.47 -69.18,-133.57 -113.19,-192.26 -44.14,-58.85 -95.11,-113.07 -152.84,-162.56l-5.04 -4.74c-77.68,-79.73 -189.24,-203.85 -334.57,-372.29 -147.67,-171.15 -326.1,-382.99 -535.21,-635.39 -106.62,-121.72 -538.13,-153.07 -847.47,-175.51 -88.34,-6.41 -167.29,-12.15 -227.58,-19.23l-527.63 29.56c-171.04,9.57 -280.44,48.08 -335.93,98.15 -19.46,17.55 -30.46,35.49 -33.43,52.59 -2.8,16.1 1.12,33.67 11.34,51.3 25.85,44.55 85.47,87.1 175.94,117.3 109.88,36.68 249.79,51.8 375.86,57.18 129.02,5.5 243.7,0.77 299.56,-1.56l10.31 -0.43 9.52 2.2c76.65,17.72 169.55,35.18 278.53,52.33 107.38,16.91 236.06,34.29 385.84,52.09l33.06 3.94 462.48 646.3 3.06 -1.46c23.29,48.48 32.45,101.07 27.98,152.12 -4.47,51.21 -22.71,101.54 -54.14,145.31 -31.21,43.48 -73.08,76.77 -120.36,97.48 -47.42,20.78 -100.2,29.05 -153.06,22.57l-1117.13 -131.84 -1305.67 49.82c-45.11,7.17 -84.73,29.14 -113.81,60.55 -29.64,32 -48.72,74.06 -51.92,120.38 -3.21,46.32 9.92,90.69 34.96,126.68 25.08,36.01 62.04,63.71 106.45,76.72 62.1,14.21 184.4,26.21 366.85,35.9 191.29,10.2 443.42,17.55 756.28,22.02 320.72,4.64 845.44,98.86 1185.05,139.13l10.12 4.14c139.97,57.32 206.73,117.3 200.14,179.84 -7.1,67.52 -87.13,106.35 -239.99,116.39l-3.27 0.22 -826.77 -37.85 -0.04 0.57 -1413.55 -89.99c-49.03,-2.94 -94.95,13.18 -130.13,42.13 -35.25,29.03 -59.93,70.96 -66.36,119.48 -6.45,48.67 6.46,95.71 32.96,132.99 25.77,36.21 64.37,63.31 110.5,73.85 290.28,43.33 620.19,91.5 989.76,144.57 382.66,54.93 802.04,114.36 1258.02,178.24l9.78 1.36c78.15,10.83 113.38,16.4 86.31,101.82l-0.24 -0.09c-15.07,48.86 -39.58,51.7 -83.37,54.29l-20.02 1.34c-280.59,20.13 -555.94,42.18 -825.82,66.03 -272.65,24.1 -530.88,49.26 -774.65,75.42 -139.75,14.99 -223.7,53.57 -259.3,100.04 -11.53,15.07 -16.68,30.71 -15.76,45.79 1.05,16.89 9.56,35.49 25.08,54.43l-0.17 0.13c50.27,61.24 160.3,112.89 322.97,127.22 193.48,17.07 432,34.12 717.54,46.3 290.69,12.39 632.91,20.26 1031.23,18.97l26.71 -0.08 20.95 16.96c207.7,168.17 416.03,307.57 612.54,420.58 235.62,135.48 454.8,233.23 635.55,297.29l5.89 2.1 5.37 2.93c155.67,85.49 294.95,123.9 417.8,115.24l0.29 0c117.97,-8.3 223.55,-61.42 316.6,-159.27l109.55 104.22c-119.98,126.15 -258.61,194.86 -415.78,206 -37.99,2.7 -76.9,1.94 -116.72,-2.25 60.16,227.89 110.41,457.13 150.66,687.21 47.4,270.86 81.43,544.42 101.97,819.92l4.11 55.1 -51.48 20.67c-300.23,120.64 -610.52,211.95 -926.42,273.03 -316.43,61.18 -638.3,92.22 -961.16,92.22 -1398.07,0 -2663.79,-566.69 -3579.96,-1482.88 -916.18,-916.16 -1482.87,-2181.9 -1482.87,-3579.95 0,-897.31 237.6,-1761.19 668.61,-2514.45 430.83,-752.89 1055.31,-1395.38 1829.25,-1850.2l76.38 130.24zm2449.11 4950.06c18.22,8.15 27,15.42 27.96,6.26 0.65,-6.26 -9.01,-5.09 -27.96,-6.26z"/>
   <path class="fil2" d="M9311.09 11905.28c90.42,67.44 193.61,100.01 280.14,99.15 43.23,-0.41 82.05,-9.28 112.42,-26.33 28.79,-16.16 49.98,-39.92 59.88,-71 11.14,-34.97 8.61,-79.98 -12.32,-134.96l42.45 -16.16c24.8,65.14 27.22,120.32 13.04,164.8 -13.64,42.83 -42.24,75.25 -80.84,96.92 -36.99,20.76 -83.32,31.54 -134.28,32.03 -95.72,0.95 -209.11,-34.54 -307.68,-108.05l27.19 -36.4zm74.08 3203.24c-0.79,84.13 -26.49,137.3 -77.03,164.18 -48.06,25.47 -116.98,24.73 -207,2.44l10.83 -44.06c79.14,19.59 137.59,21.38 174.85,1.56 34.74,-18.56 52.44,-58.81 53.04,-124.46l45.31 0.34zm-370.08 -201.38c95.45,-27.87 173.39,-31.62 233.48,-15.4 67.16,18.14 112.23,60.35 135.17,121.26l-42.45 15.98c-17.64,-46.85 -52.47,-79.35 -104.44,-93.38 -52.39,-14.14 -122.1,-10.36 -209.15,15.06l-12.61 -43.52zm-543.46 -673.83c122.09,61.36 223.46,87.63 303.98,78.82 76.84,-8.41 135.21,-50.12 175.04,-125.04l40.15 21.32c-47.35,89.04 -117.52,138.67 -210.38,148.85 -89.18,9.76 -198.9,-18.06 -329.04,-83.46l20.25 -40.49zm45.46 -335.93c114.53,-24.35 212.54,-21.41 293.97,8.85 82.52,30.66 147.24,88.98 194.11,174.81l-39.8 21.65c-41.44,-75.91 -98.17,-127.28 -170.12,-154.01 -73.06,-27.15 -162.69,-29.44 -268.74,-6.89l-9.42 -44.41zm484.78 -464.4c-46.4,100.08 -112.55,161.33 -198.4,183.74 -84.06,21.95 -185.81,5.59 -305.08,-49.03l18.84 -41.21c109.51,50.15 201.16,65.61 274.86,46.38 71.96,-18.78 128.18,-71.77 168.57,-158.89l41.21 19.01zm-494.63 -256.54c116.99,-31.94 216.26,-35.7 297.69,-15.4 87.74,21.84 154.68,71.18 200.74,142.94l-38.19 24.51c-39.74,-61.91 -97.55,-104.52 -173.38,-123.39 -74.21,-18.49 -165.87,-14.76 -274.97,15.02l-11.89 -43.68z"/>
   <path class="fil2" d="M9044.85 8439.79l934.46 0c87.79,0 167.62,35.92 225.45,93.75 57.83,57.84 93.75,137.67 93.75,225.46l0 934.45c0,87.74 -35.92,167.52 -93.75,225.37 -57.94,57.92 -137.72,93.84 -225.45,93.84l-934.46 0c-87.79,0 -167.62,-35.92 -225.45,-93.76 -57.83,-57.83 -93.75,-137.66 -93.75,-225.45l0 -934.45c0,-87.69 35.9,-167.49 93.75,-225.37 57.97,-57.94 137.77,-93.84 225.45,-93.84zm934.46 45.48l-934.46 0c-75.31,0 -143.76,30.76 -193.31,80.33 -49.65,49.63 -80.42,118.09 -80.42,193.4l0 934.45c0,75.26 30.8,143.7 80.42,193.32 49.6,49.6 118.05,80.41 193.31,80.41l934.46 0c75.29,0 143.76,-30.81 193.35,-80.38 49.56,-49.58 80.38,-118.05 80.38,-193.35l0 -934.45c0,-75.26 -30.82,-143.72 -80.42,-193.32 -49.62,-49.61 -118.05,-80.41 -193.31,-80.41z"/>
   <path class="fil3" d="M9557.34 8693.35c136.48,-136.48 357.76,-136.48 494.24,0 136.47,136.47 136.47,357.75 0,494.23 -136.48,136.48 -357.76,136.48 -494.24,0 -136.48,-136.48 -136.48,-357.76 0,-494.23zm247.11 18.9c-58.69,0 -117.14,22.12 -161.36,66.36l-0.49 0.48c-44.23,44.22 -66.35,102.67 -66.35,161.36 0,58.4 22.29,116.84 66.84,161.39 44.53,44.53 102.96,66.84 161.36,66.84 58.61,0 117.11,-22.23 161.62,-66.6 44.38,-44.52 66.6,-103.02 66.6,-161.63 0,-58.4 -22.31,-116.83 -66.84,-161.36 -44.55,-44.55 -102.98,-66.84 -161.38,-66.84z"/>
   <path class="fil3" d="M8977.86 9272.83c136.48,-136.48 357.76,-136.48 494.24,0 136.47,136.47 136.47,357.75 0,494.23 -136.48,136.48 -357.76,136.48 -494.24,0 -136.5,-136.48 -136.5,-357.76 0,-494.23zm247.11 18.9c-58.69,0 -117.14,22.12 -161.37,66.36l0 0.48c-44.56,44.56 -66.83,102.98 -66.83,161.37 0,58.4 22.27,116.81 66.8,161.34 44.56,44.57 103,66.88 161.4,66.88 58.61,0 117.11,-22.23 161.62,-66.6 44.38,-44.52 66.6,-103.02 66.6,-161.62 0,-58.41 -22.31,-116.84 -66.84,-161.37 -44.55,-44.55 -102.98,-66.84 -161.38,-66.84z"/>
   <line class="fil0" x1="8512.83" y1="13936.06" x2="8512.83" y2= "13517.82" />
   <path class="fil2" d="M9663 8251.96l-541 0c-160.55,0 -306.59,65.76 -412.51,171.68 -105.92,105.9 -171.66,251.93 -171.66,412.49l0 567.5c-61.94,-61.25 -175.37,-85.17 -252.3,-82.23 -210.69,8.04 -377.23,100.66 -576.63,283.33 115.19,-125.3 200.86,-254.79 247.65,-382.45 151.17,-412.7 -147.89,-684.73 -698.86,-708.84 170.08,-7.17 322.21,-38.14 445.54,-95.32 398.72,-184.93 379.59,-588.76 7.05,-995.4 125.32,115.19 254.81,200.86 382.47,247.64 405,148.36 674.56,-136.96 707.21,-668.45l3.18 0c9.4,157.81 40.01,299.18 93.77,415.12 184.91,398.73 588.76,379.64 995.4,7.07 -115.2,125.31 -200.88,254.81 -247.64,382.47 -36.16,98.74 -46.53,189.41 -33.86,270.57 7.58,60.84 25.26,119.93 52.19,174.82z"/>
  </g>
 </g>
</svg>
